<mxfile host="app.diagrams.net" modified="2024-04-12T11:35:26.636Z" agent="Mozilla/5.0 (Windows NT 10.0; Win64; x64) AppleWebKit/537.36 (KHTML, like Gecko) Chrome/123.0.0.0 Safari/537.36" etag="ar9MP3kZVzEv3IZ9S2jY" version="24.2.3" type="github">
  <diagram id="C5RBs43oDa-KdzZeNtuy" name="Page-1">
    <mxGraphModel dx="1434" dy="780" grid="1" gridSize="10" guides="1" tooltips="1" connect="1" arrows="1" fold="1" page="1" pageScale="1" pageWidth="827" pageHeight="1169" math="0" shadow="0">
      <root>
        <mxCell id="WIyWlLk6GJQsqaUBKTNV-0" />
        <mxCell id="WIyWlLk6GJQsqaUBKTNV-1" parent="WIyWlLk6GJQsqaUBKTNV-0" />
        <mxCell id="scPKPoK0qALoJ05n1rfj-2" value="" style="edgeStyle=orthogonalEdgeStyle;rounded=0;orthogonalLoop=1;jettySize=auto;html=1;fillColor=#e1d5e7;strokeColor=#9673a6;opacity=50;" edge="1" parent="WIyWlLk6GJQsqaUBKTNV-1" source="WIyWlLk6GJQsqaUBKTNV-3" target="scPKPoK0qALoJ05n1rfj-0">
          <mxGeometry relative="1" as="geometry" />
        </mxCell>
        <mxCell id="WIyWlLk6GJQsqaUBKTNV-3" value="&lt;font face=&quot;Courier New&quot;&gt;start&lt;/font&gt;" style="rounded=1;whiteSpace=wrap;html=1;fontSize=12;glass=0;strokeWidth=1;shadow=0;fillColor=#e1d5e7;strokeColor=#9673a6;opacity=50;" parent="WIyWlLk6GJQsqaUBKTNV-1" vertex="1">
          <mxGeometry x="354" y="150" width="120" height="40" as="geometry" />
        </mxCell>
        <mxCell id="WIyWlLk6GJQsqaUBKTNV-11" value="stop" style="rounded=1;whiteSpace=wrap;html=1;fontSize=12;glass=0;strokeWidth=1;shadow=0;" parent="WIyWlLk6GJQsqaUBKTNV-1" vertex="1">
          <mxGeometry x="354" y="630" width="120" height="40" as="geometry" />
        </mxCell>
        <mxCell id="scPKPoK0qALoJ05n1rfj-3" value="" style="edgeStyle=orthogonalEdgeStyle;rounded=0;orthogonalLoop=1;jettySize=auto;html=1;fillColor=#e1d5e7;strokeColor=#9673a6;opacity=50;" edge="1" parent="WIyWlLk6GJQsqaUBKTNV-1" source="scPKPoK0qALoJ05n1rfj-0" target="scPKPoK0qALoJ05n1rfj-1">
          <mxGeometry relative="1" as="geometry" />
        </mxCell>
        <mxCell id="scPKPoK0qALoJ05n1rfj-0" value="&lt;font face=&quot;Courier New&quot;&gt;input number 1&lt;/font&gt;" style="shape=parallelogram;perimeter=parallelogramPerimeter;whiteSpace=wrap;html=1;fixedSize=1;fillColor=#e1d5e7;strokeColor=#9673a6;opacity=50;" vertex="1" parent="WIyWlLk6GJQsqaUBKTNV-1">
          <mxGeometry x="352" y="220" width="124" height="60" as="geometry" />
        </mxCell>
        <mxCell id="scPKPoK0qALoJ05n1rfj-13" value="" style="edgeStyle=orthogonalEdgeStyle;rounded=0;orthogonalLoop=1;jettySize=auto;html=1;" edge="1" parent="WIyWlLk6GJQsqaUBKTNV-1" source="scPKPoK0qALoJ05n1rfj-1" target="scPKPoK0qALoJ05n1rfj-4">
          <mxGeometry relative="1" as="geometry" />
        </mxCell>
        <mxCell id="scPKPoK0qALoJ05n1rfj-1" value="input number 2" style="shape=parallelogram;perimeter=parallelogramPerimeter;whiteSpace=wrap;html=1;fixedSize=1;fillColor=#e1d5e7;strokeColor=#9673a6;opacity=50;" vertex="1" parent="WIyWlLk6GJQsqaUBKTNV-1">
          <mxGeometry x="350" y="310" width="130" height="60" as="geometry" />
        </mxCell>
        <mxCell id="scPKPoK0qALoJ05n1rfj-6" value="" style="edgeStyle=orthogonalEdgeStyle;rounded=0;orthogonalLoop=1;jettySize=auto;html=1;" edge="1" parent="WIyWlLk6GJQsqaUBKTNV-1" source="scPKPoK0qALoJ05n1rfj-4" target="scPKPoK0qALoJ05n1rfj-5">
          <mxGeometry relative="1" as="geometry" />
        </mxCell>
        <mxCell id="scPKPoK0qALoJ05n1rfj-7" value="no" style="edgeLabel;html=1;align=center;verticalAlign=middle;resizable=0;points=[];" vertex="1" connectable="0" parent="scPKPoK0qALoJ05n1rfj-6">
          <mxGeometry x="-0.2368" y="1" relative="1" as="geometry">
            <mxPoint as="offset" />
          </mxGeometry>
        </mxCell>
        <mxCell id="scPKPoK0qALoJ05n1rfj-9" value="" style="edgeStyle=orthogonalEdgeStyle;rounded=0;orthogonalLoop=1;jettySize=auto;html=1;" edge="1" parent="WIyWlLk6GJQsqaUBKTNV-1" source="scPKPoK0qALoJ05n1rfj-4" target="scPKPoK0qALoJ05n1rfj-8">
          <mxGeometry relative="1" as="geometry" />
        </mxCell>
        <mxCell id="scPKPoK0qALoJ05n1rfj-10" value="yes" style="edgeLabel;html=1;align=center;verticalAlign=middle;resizable=0;points=[];" vertex="1" connectable="0" parent="scPKPoK0qALoJ05n1rfj-9">
          <mxGeometry x="-0.125" y="2" relative="1" as="geometry">
            <mxPoint as="offset" />
          </mxGeometry>
        </mxCell>
        <mxCell id="scPKPoK0qALoJ05n1rfj-4" value="if n1&amp;gt;n2" style="rhombus;whiteSpace=wrap;html=1;" vertex="1" parent="WIyWlLk6GJQsqaUBKTNV-1">
          <mxGeometry x="324" y="410" width="180" height="80" as="geometry" />
        </mxCell>
        <mxCell id="scPKPoK0qALoJ05n1rfj-5" value="print n2 is the biggest number" style="shape=parallelogram;perimeter=parallelogramPerimeter;whiteSpace=wrap;html=1;fixedSize=1;fillColor=#e1d5e7;strokeColor=#9673a6;" vertex="1" parent="WIyWlLk6GJQsqaUBKTNV-1">
          <mxGeometry x="570" y="420" width="160" height="60" as="geometry" />
        </mxCell>
        <mxCell id="scPKPoK0qALoJ05n1rfj-8" value="print n1 is the biggest number" style="shape=parallelogram;perimeter=parallelogramPerimeter;whiteSpace=wrap;html=1;fixedSize=1;" vertex="1" parent="WIyWlLk6GJQsqaUBKTNV-1">
          <mxGeometry x="120" y="420" width="150" height="60" as="geometry" />
        </mxCell>
      </root>
    </mxGraphModel>
  </diagram>
</mxfile>
